<svg version="1.1" id="Layer_1" xmlns="http://www.w3.org/2000/svg" xmlns:xlink="http://www.w3.org/1999/xlink" x="0px" y="0px"
	 width="100%" viewBox="0 0 660 284" enable-background="new 0 0 660 284" xml:space="preserve">
<path fill="#000000" opacity="1.000000" stroke="none" 
	d="
M419.000000,285.000000 
	C279.333344,285.000000 140.166672,285.000000 1.000000,285.000000 
	C1.000000,190.333328 1.000000,95.666664 1.000000,1.000000 
	C221.000000,1.000000 441.000000,1.000000 661.000000,1.000000 
	C661.000000,95.666664 661.000000,190.333328 661.000000,285.000000 
	C580.500000,285.000000 500.000000,285.000000 419.000000,285.000000 
M164.989075,188.231720 
	C162.971390,182.354340 156.040710,182.189911 150.236740,188.215164 
	C149.473114,190.933487 148.709488,193.651810 147.903183,196.522064 
	C151.661819,198.296936 155.421417,199.799591 158.855118,201.848434 
	C159.987000,202.523804 160.884476,204.684128 160.722519,206.024521 
	C160.625977,206.823502 158.272766,207.855499 156.913483,207.886673 
	C154.399094,207.944336 151.869598,207.343903 149.378571,207.021759 
	C147.696304,212.342545 151.928589,212.356888 154.520065,212.875732 
	C161.416138,214.256409 165.552826,211.902496 167.385986,206.188690 
	C168.485718,206.867798 169.958099,207.283020 170.592468,208.248749 
	C174.786987,214.634079 181.458206,213.774658 186.938568,211.835754 
	C188.079132,211.432220 188.599731,209.276443 189.406052,207.928207 
	C188.053421,207.688461 186.709473,207.354950 185.346329,207.228683 
	C182.609970,206.975235 179.356812,207.700424 177.232056,206.457428 
	C173.474930,204.259460 172.796814,197.620651 175.092651,193.717575 
	C177.271484,190.013458 181.681976,189.001846 187.269073,190.924805 
	C190.124084,187.272385 189.635590,186.340622 185.396515,184.932159 
	C180.333618,183.249939 175.630875,184.193863 172.649353,188.012375 
	C169.758469,191.714813 168.381821,196.599609 166.590607,200.429642 
	C165.170990,199.576126 162.437042,198.030899 159.814575,196.315262 
	C158.448959,195.421829 157.279938,194.227921 156.022125,193.169739 
	C157.517944,192.116104 158.988785,191.023499 160.527557,190.036835 
	C160.902176,189.796631 161.500046,189.904602 162.663315,190.004639 
	C163.113724,189.948715 163.564148,189.892807 164.543640,189.928345 
	C164.641403,189.625641 164.739166,189.322937 164.989075,188.231720 
M499.999908,199.150238 
	C499.998871,197.155655 500.039734,195.159988 499.988556,193.166702 
	C499.856567,188.025742 496.914581,185.122757 491.740753,185.003433 
	C490.245605,184.968964 488.716492,185.199295 487.258911,184.963058 
	C482.030090,184.115494 480.591431,186.710052 480.970947,191.383255 
	C481.409027,196.777130 482.154114,202.214966 481.849182,207.581619 
	C481.518616,213.398865 481.399017,213.693329 486.776337,212.309967 
	C487.040100,209.887650 487.296143,207.536560 487.696747,203.857697 
	C490.647339,206.518082 493.251343,207.929825 494.386047,210.107254 
	C496.113403,213.421921 498.155121,213.387589 501.445374,212.453766 
	C500.074951,209.115280 499.045349,206.038879 497.579559,203.186646 
	C495.918854,199.955200 497.868927,199.947220 500.002411,200.647430 
	C500.659393,201.417114 502.003082,202.343933 501.868408,202.932495 
	C500.327820,209.665359 506.006134,210.340591 509.791107,212.137863 
	C516.434998,215.292664 524.121216,211.390518 526.018677,204.394363 
	C526.521973,202.538605 527.256897,200.745667 527.885498,198.923874 
	C528.158020,198.983551 528.430542,199.043228 528.703064,199.102905 
	C528.703064,203.656769 528.703064,208.210632 528.703064,212.779388 
	C534.511353,212.779388 539.622314,212.779388 544.767090,212.779388 
	C544.767090,211.138199 544.767090,209.733414 544.767090,208.000793 
	C543.423279,208.000793 542.257202,207.841660 541.149231,208.027878 
	C535.874756,208.914307 534.548218,206.481995 534.911499,201.585556 
	C535.314209,196.157227 535.003601,190.675980 535.003601,185.187531 
	C532.754150,185.187531 530.973816,185.187531 529.214844,185.187531 
	C529.049683,186.487061 528.908386,187.599243 528.690796,189.311432 
	C525.335632,187.807632 522.269897,186.499603 519.260986,185.071701 
	C512.330505,181.782715 502.448425,187.079453 501.916962,193.939545 
	C501.755951,196.018097 500.625214,198.021515 499.999908,199.150238 
M255.974564,186.033340 
	C249.804245,184.246811 243.719604,184.323807 237.498169,186.282974 
	C236.723572,184.462967 233.009750,183.941086 231.358795,186.361938 
	C229.655930,188.858902 227.124832,192.269623 227.734222,194.532349 
	C228.750305,198.305054 225.293640,199.769821 225.757690,202.741821 
	C223.633392,197.673355 222.233765,192.598892 220.158203,187.817841 
	C219.562683,186.446091 216.984238,185.130463 215.367950,185.191513 
	C212.820694,185.287720 213.435150,187.145111 214.496582,188.817612 
	C214.698105,189.135147 213.865250,190.109116 213.498245,190.801743 
	C205.318130,181.854050 198.568024,183.671844 193.426910,187.088287 
	C189.482239,189.709641 188.342453,199.469269 191.006409,206.518417 
	C192.770645,211.186768 199.675507,215.291901 204.569321,213.543243 
	C214.034149,210.161301 214.840698,202.049637 214.339783,193.271194 
	C217.240082,198.702225 219.523987,204.237625 222.061996,209.653976 
	C222.678940,210.970612 224.075317,212.699768 225.216034,212.780060 
	C226.417404,212.864609 228.341446,211.474731 228.899536,210.250351 
	C230.550125,206.629196 231.468277,202.675385 233.102554,199.045105 
	C233.995850,197.060791 235.757736,195.467484 237.127930,193.697861 
	C237.546112,193.910446 237.964294,194.123047 238.382477,194.335632 
	C238.382477,192.417633 238.382477,190.499619 238.382477,188.581619 
	C238.669601,188.614975 238.956711,188.648331 239.243835,188.681702 
	C239.243835,196.756546 239.243835,204.831406 239.243835,212.845703 
	C244.964081,212.845703 250.254578,212.845703 255.667908,212.845703 
	C255.667908,211.166077 255.667908,209.664810 255.667908,207.986572 
	C251.699234,207.986572 248.055542,207.986572 244.708511,207.986572 
	C244.708511,205.603592 244.708511,203.404663 244.708511,200.867584 
	C247.531219,200.867584 250.637909,200.867584 253.771225,200.867584 
	C253.771225,199.112747 253.771225,197.707108 253.771225,195.897156 
	C250.555954,195.897156 247.555359,195.897156 244.554764,195.897156 
	C244.555466,195.708755 244.556183,195.520355 244.556900,195.331940 
	C246.406921,195.061340 248.256943,194.790726 250.106964,194.520111 
	C250.051895,194.197006 249.996841,193.873901 249.941772,193.550797 
	C248.596481,193.121033 247.251175,192.691254 244.553284,191.829376 
	C247.977310,190.984818 249.996674,190.597473 251.938828,189.970795 
	C253.358276,189.512772 254.676147,188.739914 256.919556,188.012070 
	C257.612335,189.129333 258.875580,190.231873 258.904877,191.366257 
	C259.088776,198.487488 258.997894,205.615814 258.997894,212.712570 
	C262.728455,212.955429 262.728455,212.955429 266.291656,206.282593 
	C274.774780,213.038773 274.774780,213.038773 278.389557,212.247833 
	C277.162964,209.560822 276.328644,206.706085 274.689026,204.431946 
	C273.069611,202.185806 273.530029,201.292511 274.996094,199.039688 
	C276.526154,196.688477 276.817505,192.908447 276.288391,190.000916 
	C275.657196,186.532364 272.553619,184.684158 268.875397,185.048798 
	C264.576263,185.474960 260.313538,186.268631 255.974564,186.033340 
M375.487976,125.046104 
	C379.419708,127.143478 376.899689,130.546616 376.905182,133.248383 
	C376.921570,141.291214 376.358307,149.334229 376.280487,157.379700 
	C376.272125,158.243805 377.940460,159.852554 378.869049,159.881165 
	C385.805267,160.094757 392.751038,159.997269 399.964752,159.997269 
	C399.964752,153.188950 400.016266,146.887924 399.927032,140.588913 
	C399.905792,139.090088 399.413727,137.597946 399.124481,136.028275 
	C410.491882,136.236435 421.409485,132.534561 430.405365,126.250854 
	C431.504395,129.462006 431.740112,132.747360 433.468628,134.733658 
	C439.641602,141.827148 445.900146,148.955460 452.922485,155.171143 
	C460.624481,161.988464 466.420410,159.676514 469.295349,154.859192 
	C471.051086,151.917267 470.640686,147.682617 471.147339,144.391434 
	C471.835175,142.363907 472.905975,140.649918 472.924133,138.924820 
	C473.064514,125.594429 473.001221,112.261909 473.001068,98.930046 
	C473.001038,95.666840 473.001099,92.403633 473.001099,89.292953 
	C465.280548,89.292953 458.190094,89.292953 451.837585,89.292953 
	C447.078888,100.488922 453.805939,112.127838 449.596771,123.127670 
	C445.786926,120.894768 442.627869,119.043282 438.600006,116.682610 
	C447.565948,103.296745 448.257660,88.342384 440.788269,73.927872 
	C433.110901,59.111958 419.635925,51.668171 403.139771,51.246147 
	C393.619202,51.002583 384.348114,53.890278 376.649261,60.087025 
	C367.441986,67.497864 362.168304,77.236893 360.631012,89.014526 
	C356.473846,89.014526 352.578918,89.473938 348.843170,88.898987 
	C344.105133,88.169800 341.351868,90.669098 338.773773,93.760986 
	C333.744354,99.792778 328.827820,105.918701 323.864563,112.005653 
	C323.410431,111.897644 322.956329,111.789635 322.502197,111.681633 
	C322.502197,94.579102 322.502197,77.476578 322.502197,60.001221 
	C316.814087,60.001221 312.023163,60.001411 307.232269,60.001179 
	C300.235260,60.000839 300.048462,60.000233 300.030975,66.841553 
	C299.955200,96.504761 300.039154,126.168404 299.940826,155.831482 
	C299.929626,159.210297 301.220734,160.185379 304.382416,160.050827 
	C308.873779,159.859680 313.379425,160.018478 317.878845,159.998505 
	C323.208374,159.974838 323.758911,159.194733 322.334656,153.798599 
	C320.158783,145.554825 322.107727,138.242508 328.012848,133.878342 
	C332.336731,140.135376 336.524475,146.479187 341.031372,152.587540 
	C343.033936,155.301758 345.450897,159.318146 348.078461,159.657593 
	C355.539520,160.621460 363.206024,159.995544 372.119598,159.995544 
	C362.539459,146.052856 353.624023,133.077515 344.576843,119.910439 
	C349.449982,114.410942 354.650208,108.542313 359.093201,103.528267 
	C364.443420,110.865540 369.587738,117.920418 375.487976,125.046104 
M121.026604,141.462524 
	C122.708420,147.651932 124.390236,153.841339 126.061264,159.991013 
	C133.163635,159.991013 139.661118,159.845261 146.147018,160.055695 
	C149.155899,160.153320 150.374496,159.174118 151.080566,156.188004 
	C153.297012,146.814270 155.852737,137.519608 158.344131,128.212280 
	C162.866623,111.317123 167.465881,94.442459 171.963928,77.540833 
	C172.850098,74.211052 173.423798,70.798126 174.187134,67.209473 
	C165.718094,67.209473 157.930511,67.209473 150.473572,67.209473 
	C146.062149,86.642578 141.707626,105.825012 137.353104,125.007446 
	C136.976425,124.949722 136.599762,124.891998 136.223099,124.834274 
	C131.033310,105.646858 125.843529,86.459442 120.689156,67.402969 
	C115.092331,66.945618 109.591118,66.270988 104.080612,66.183899 
	C102.441841,66.157990 99.842728,67.395615 99.294937,68.720497 
	C97.470924,73.132095 96.287567,77.821381 95.023285,82.449211 
	C91.108742,96.778130 87.270195,111.127823 83.029938,126.849457 
	C81.160049,118.757599 79.560890,111.919128 78.001648,105.071571 
	C75.324234,93.313484 72.739067,81.533417 69.900208,69.814651 
	C69.628860,68.694519 67.867577,67.183945 66.750778,67.143036 
	C59.958511,66.894249 53.152569,67.018906 46.051453,67.018906 
	C46.051453,68.661568 45.783375,70.019279 46.093830,71.228455 
	C48.596828,80.977280 51.157574,90.712051 53.798981,100.424385 
	C58.044807,116.036095 62.373158,131.625351 66.650223,147.228577 
	C67.752274,151.249008 67.575409,157.173416 70.165848,158.844833 
	C73.510498,161.002914 79.043633,159.915283 83.637039,159.962006 
	C93.622734,160.063583 93.792358,160.046371 96.598473,150.762924 
	C99.609566,140.801331 102.204056,130.714539 105.091484,120.714478 
	C106.513954,115.788017 108.186996,110.933899 109.746651,106.047043 
	C110.147072,106.120422 110.547493,106.193794 110.947922,106.267166 
	C114.304222,117.717148 117.660515,129.167114 121.026604,141.462524 
M623.999023,144.496628 
	C623.997620,118.023430 623.925598,91.549843 624.072327,65.077461 
	C624.093811,61.194088 623.091736,59.620483 619.021729,59.928204 
	C614.717285,60.253654 610.364624,60.130985 606.042175,59.964558 
	C603.015381,59.848019 601.885376,60.977062 601.963379,64.028687 
	C602.124878,70.351509 602.118530,76.683907 601.957092,83.006653 
	C601.904297,85.075043 601.157654,87.125717 600.973694,88.007759 
	C594.117859,88.007759 588.253479,87.223366 582.701721,88.205818 
	C575.722290,89.440926 569.533569,92.557243 564.678101,98.516006 
	C555.002625,110.390198 554.313660,123.920189 557.211182,137.705887 
	C559.826050,150.146820 567.237183,158.674164 580.790894,161.162140 
	C590.532532,162.950348 598.487183,160.313904 604.924438,155.059464 
	C606.327698,156.756683 607.518250,159.587799 609.036499,159.776031 
	C613.889771,160.377808 618.864624,159.999390 623.997009,159.999390 
	C623.997009,154.776367 623.997009,150.135773 623.999023,144.496628 
M183.050461,94.593063 
	C181.935928,95.659126 180.619644,96.580994 179.738510,97.813866 
	C172.109299,108.488510 168.526794,120.271828 171.075272,133.349182 
	C172.551544,140.924591 175.206818,148.088943 181.604980,153.191940 
	C191.981552,161.467987 203.817902,163.498962 216.472321,160.889816 
	C223.078217,159.527771 228.914474,156.467255 233.526688,151.078888 
	C241.005219,142.341873 243.013840,132.234467 242.326141,121.176666 
	C241.183578,102.804817 231.619537,91.784035 216.529037,88.242897 
	C205.163986,85.575966 193.748352,87.483673 183.050461,94.593063 
M493.507263,159.999878 
	C495.839386,159.999802 498.201141,159.762863 500.497314,160.050095 
	C504.957916,160.608093 506.188721,158.817810 506.097687,154.445755 
	C505.827637,141.474045 506.073944,128.492416 505.951111,115.516243 
	C505.917755,111.988167 507.531677,110.033432 510.642609,109.006172 
	C512.459106,108.406326 514.306702,107.893967 516.156189,107.401909 
	C520.776611,106.172684 526.419373,109.789124 526.953674,114.579720 
	C527.498108,119.462112 527.881531,124.383286 527.954163,129.293121 
	C528.103699,139.404068 527.999146,149.518768 527.999146,159.786194 
	C535.495056,159.786194 542.563904,159.786194 548.991150,159.786194 
	C548.991150,142.539627 549.819641,125.455826 548.665710,108.506989 
	C548.022156,99.055237 542.491638,90.859230 532.073914,88.709923 
	C523.360291,86.912178 514.568481,87.006966 506.848480,92.675377 
	C504.675507,94.270912 502.709381,95.736176 501.651245,91.482361 
	C501.392883,90.443718 499.501953,89.178192 498.304688,89.116119 
	C493.234375,88.853233 488.142639,89.004639 483.470276,89.004639 
	C483.470276,112.994957 483.470276,136.285660 483.470276,160.000122 
	C486.277924,160.000122 489.405243,160.000122 493.507263,159.999878 
M276.658325,90.890244 
	C274.250946,92.849960 271.843597,94.809669 269.914886,96.379753 
	C269.822357,96.020760 269.729523,94.136192 268.864746,92.724449 
	C267.959656,91.246880 266.395721,89.296913 264.975281,89.169937 
	C260.083710,88.732681 255.128967,89.001778 249.887787,89.001778 
	C249.887787,112.967949 249.887787,136.353409 249.887787,159.736237 
	C257.601288,159.736237 264.671112,159.736237 271.978821,159.736237 
	C271.978821,147.005707 271.960266,134.539291 271.988708,122.072975 
	C271.998962,117.579559 273.278381,113.396950 277.801178,111.807411 
	C282.877625,110.023308 288.252899,109.089531 294.356873,107.572350 
	C294.356873,101.805984 294.356873,94.997421 294.356873,86.946671 
	C288.541626,88.084442 282.847137,89.198578 276.658325,90.890244 
M449.956329,209.353027 
	C450.702057,206.793747 451.447815,204.234467 452.193542,201.675201 
	C452.652740,201.779984 453.111908,201.884750 453.571075,201.989532 
	C454.930725,205.653580 456.290344,209.317627 458.003540,213.934464 
	C460.131744,212.794601 463.335236,212.141907 463.772308,210.668564 
	C466.227020,202.393814 468.015259,193.921356 470.078613,185.317596 
	C466.958038,184.847122 464.431519,184.174484 463.712341,188.507141 
	C462.932434,193.205719 461.381287,197.776260 460.206451,202.250427 
	C458.734070,196.758560 457.149597,190.848709 455.626770,185.168655 
	C453.571686,185.168655 451.930817,185.168655 450.626160,185.168655 
	C448.735077,189.681610 446.952759,193.935059 444.684052,199.349197 
	C443.920013,195.745087 443.416351,193.555939 442.996765,191.350800 
	C442.151123,186.906326 440.400177,184.059860 434.965271,184.919724 
	C431.229584,185.510727 427.314026,185.159607 423.492737,184.961777 
	C419.414185,184.750610 415.950623,184.846512 416.912994,190.550522 
	C417.034821,191.272583 416.126007,192.168564 415.660156,193.049286 
	C412.423737,191.059326 416.402618,182.235046 408.020508,185.656357 
	C408.020508,190.216827 408.020508,194.847122 408.020508,199.477417 
	C405.807495,197.385941 404.158478,195.035294 403.050140,192.452591 
	C400.703369,186.984161 397.494415,184.763412 391.998199,185.502014 
	C391.998199,193.438965 391.874390,201.418915 392.128174,209.386856 
	C392.167419,210.618896 393.937805,211.795807 394.907593,212.998230 
	C395.938446,211.855133 397.595184,210.841110 397.863312,209.540741 
	C398.347076,207.194809 398.000153,204.677597 398.000153,201.822388 
	C402.391205,203.093094 404.691956,205.663330 406.075867,209.393265 
	C406.968262,211.798523 408.605469,214.210297 411.472198,212.808350 
	C412.795502,212.161179 413.450470,209.681458 413.937744,207.903610 
	C414.608734,205.455429 414.833801,202.884995 415.249908,200.366928 
	C415.639435,200.359116 416.028961,200.351303 416.418488,200.343491 
	C417.060425,204.416641 417.702362,208.489792 418.413483,213.001831 
	C422.559174,213.001831 426.855103,212.930237 431.147461,213.023285 
	C434.947662,213.105637 435.566223,211.280136 434.466705,207.767426 
	C430.578552,207.767426 426.820618,207.767426 423.149689,207.767426 
	C423.149689,205.064438 423.149689,202.751465 423.149689,200.408356 
	C431.566681,202.247040 433.060303,201.461212 432.869476,196.942917 
	C430.882050,195.609268 429.717224,194.580017 428.360535,193.998337 
	C427.339935,193.560776 426.073120,193.697479 424.915955,193.578537 
	C425.074402,194.344818 425.232880,195.111099 425.391327,195.877380 
	C424.991302,196.012451 424.591278,196.147522 424.191254,196.282608 
	C423.677277,194.344635 423.163300,192.406677 422.643829,190.448059 
	C424.484283,190.285324 425.646820,190.215302 426.800842,190.074982 
	C432.815369,189.343613 437.320251,192.073303 438.807495,197.511520 
	C439.951599,201.695068 440.737823,205.989655 442.123169,210.086060 
	C442.538727,211.314972 444.297913,212.439194 445.680725,212.912231 
	C447.958038,213.691269 449.316589,212.471771 449.956329,209.353027 
M376.990753,203.836700 
	C376.014038,201.806091 375.909393,200.460693 377.755188,198.279755 
	C379.364960,196.377716 380.029175,192.266846 379.068085,189.996994 
	C378.122894,187.764755 374.796539,185.816498 372.172485,185.198700 
	C368.725464,184.387115 364.943207,184.999496 361.642975,184.999496 
	C360.757050,188.214645 359.983215,191.023117 358.873474,195.050583 
	C356.976868,190.386307 360.712524,183.467285 351.995605,185.321716 
	C351.995605,191.067764 351.921661,196.869720 352.023743,202.668594 
	C352.083466,206.057724 350.908539,207.960007 347.234131,208.033569 
	C343.409332,208.110123 341.880432,206.390549 341.967010,202.630798 
	C342.100677,196.828781 342.002258,191.021393 342.002258,183.968262 
	C338.001892,185.758850 334.789398,187.196762 331.468933,188.683029 
	C325.885101,183.909210 318.633057,183.184952 313.724487,187.031387 
	C309.593964,190.268143 307.292847,200.911835 309.651031,205.873001 
	C311.699402,210.182343 318.950195,215.023666 322.602264,213.874786 
	C325.598114,212.932297 328.644043,211.372437 330.994507,209.316513 
	C335.899689,205.026031 333.363251,198.857101 334.686859,193.458878 
	C335.457245,196.300385 335.660217,199.196198 335.961853,202.081711 
	C336.072693,203.142105 336.264191,204.243195 336.678833,205.214798 
	C339.572388,211.995148 341.622681,213.325760 348.942169,212.984406 
	C354.540802,212.723297 356.591339,208.773148 358.232788,203.754135 
	C359.593781,205.966537 360.088409,208.345078 361.096039,210.481689 
	C361.599060,211.548325 363.046417,212.822556 364.054626,212.812363 
	C365.041168,212.802383 366.626312,211.418655 366.859344,210.390884 
	C367.308746,208.408981 366.990417,206.252975 366.990417,204.134460 
	C373.210236,204.865479 373.223175,215.006104 381.773254,212.353928 
	C380.017731,209.438950 378.549591,207.001160 376.990753,203.836700 
M471.973633,62.713795 
	C469.301819,59.503109 465.718323,58.385437 461.721191,58.421703 
	C454.298340,58.489044 447.198334,65.943642 449.134430,72.065956 
	C450.565887,76.592499 453.275208,80.850647 458.358765,81.864319 
	C464.145142,83.018143 469.746277,81.944656 472.983154,76.347374 
	C475.443024,72.093628 474.776794,67.605324 471.973633,62.713795 
M114.992599,197.566467 
	C114.993263,199.726288 114.994751,201.886093 114.994461,204.045914 
	C114.993141,213.920380 116.298828,214.866837 126.310799,212.261826 
	C126.773544,212.141418 127.251961,212.031250 127.726593,212.014236 
	C133.066208,211.822708 135.674683,207.925217 136.831757,203.778839 
	C138.993088,196.033691 137.017166,189.266159 131.958176,187.170029 
	C127.623245,185.373886 122.722870,184.753448 118.004158,184.231781 
	C117.058418,184.127228 115.105179,186.695251 114.846703,188.237228 
	C114.393616,190.940231 114.892532,193.802795 114.992599,197.566467 
M561.644287,195.998444 
	C560.399109,194.795197 559.153931,193.591949 557.367432,191.865646 
	C556.249939,192.926849 554.801270,194.302536 552.857605,196.148239 
	C553.171326,193.702896 553.408325,191.855103 553.585510,190.474274 
	C557.229919,190.270309 560.483093,190.088257 563.674500,189.909637 
	C564.019653,188.494843 564.308044,187.312546 564.858521,185.056274 
	C558.786377,185.056274 553.057617,185.056274 547.232300,185.056274 
	C547.232300,194.582901 547.232300,203.633316 547.232300,213.007370 
	C551.913452,213.007370 556.370667,212.872879 560.815613,213.049362 
	C564.457520,213.193939 565.581055,211.680725 564.636841,207.859406 
	C560.823608,207.492981 556.982300,207.123856 553.169250,206.757462 
	C553.169250,204.961807 553.169250,202.713196 553.169250,201.314651 
	C556.263611,201.041122 559.171875,200.999512 561.932800,200.340454 
	C562.426941,200.222473 562.311584,197.551224 561.644287,195.998444 
M304.633209,185.034180 
	C302.884949,187.373810 301.136658,189.713425 298.849670,192.774002 
	C297.073730,190.603546 295.727600,188.532639 293.952637,186.939514 
	C292.779602,185.886627 290.990753,185.519852 289.477600,184.845886 
	C289.320343,186.259689 288.655212,187.872574 289.114685,189.044601 
	C289.991272,191.280655 291.950531,193.123962 292.673706,195.382217 
	C294.468353,200.986359 295.820160,206.732315 297.512482,213.026154 
	C300.792999,213.904831 302.186432,212.214340 302.146057,207.722443 
	C302.113556,204.114731 302.816254,200.285751 304.150421,196.936447 
	C305.706909,193.029144 308.304413,189.536530 310.450226,185.863968 
	C310.235870,185.388535 310.021545,184.913101 309.807190,184.437668 
	C308.340546,184.611252 306.873901,184.784836 304.633209,185.034180 
M143.507782,212.978622 
	C144.336868,211.275513 145.794525,209.603622 145.880905,207.863647 
	C146.177261,201.894760 145.786865,195.892700 146.057236,189.921356 
	C146.273514,185.144821 144.246368,184.191498 139.998016,185.471268 
	C139.998016,193.401474 139.873764,201.203125 140.116684,208.993332 
	C140.158630,210.338699 141.758240,211.635513 143.507782,212.978622 
z"/>
<path fill="#FDFDFD" opacity="1.000000" stroke="none" 
	d="
M375.110016,125.010696 
	C369.587738,117.920418 364.443420,110.865540 359.093201,103.528267 
	C354.650208,108.542313 349.449982,114.410942 344.576843,119.910439 
	C353.624023,133.077515 362.539459,146.052856 372.119598,159.995544 
	C363.206024,159.995544 355.539520,160.621460 348.078461,159.657593 
	C345.450897,159.318146 343.033936,155.301758 341.031372,152.587540 
	C336.524475,146.479187 332.336731,140.135376 328.012848,133.878342 
	C322.107727,138.242508 320.158783,145.554825 322.334656,153.798599 
	C323.758911,159.194733 323.208374,159.974838 317.878845,159.998505 
	C313.379425,160.018478 308.873779,159.859680 304.382416,160.050827 
	C301.220734,160.185379 299.929626,159.210297 299.940826,155.831482 
	C300.039154,126.168404 299.955200,96.504761 300.030975,66.841553 
	C300.048462,60.000233 300.235260,60.000839 307.232269,60.001179 
	C312.023163,60.001411 316.814087,60.001221 322.502197,60.001221 
	C322.502197,77.476578 322.502197,94.579102 322.502197,111.681633 
	C322.956329,111.789635 323.410431,111.897644 323.864563,112.005653 
	C328.827820,105.918701 333.744354,99.792778 338.773773,93.760986 
	C341.351868,90.669098 344.105133,88.169800 348.843170,88.898987 
	C352.578918,89.473938 356.473846,89.014526 360.631012,89.014526 
	C362.168304,77.236893 367.441986,67.497864 376.649261,60.087025 
	C384.348114,53.890278 393.619202,51.002583 403.139771,51.246147 
	C419.635925,51.668171 433.110901,59.111958 440.788269,73.927872 
	C448.257660,88.342384 447.565948,103.296745 438.600006,116.682610 
	C442.627869,119.043282 445.786926,120.894768 449.596771,123.127670 
	C453.805939,112.127838 447.078888,100.488922 451.837585,89.292953 
	C458.190094,89.292953 465.280548,89.292953 473.001099,89.292953 
	C473.001099,92.403633 473.001038,95.666840 473.001068,98.930046 
	C473.001221,112.261909 473.064514,125.594429 472.924133,138.924820 
	C472.905975,140.649918 471.835175,142.363907 471.147339,144.391434 
	C470.640686,147.682617 471.051086,151.917267 469.295349,154.859192 
	C466.420410,159.676514 460.624481,161.988464 452.922485,155.171143 
	C445.900146,148.955460 439.641602,141.827148 433.468628,134.733658 
	C431.740112,132.747360 431.504395,129.462006 430.405365,126.250854 
	C421.409485,132.534561 410.491882,136.236435 399.124481,136.028275 
	C399.413727,137.597946 399.905792,139.090088 399.927032,140.588913 
	C400.016266,146.887924 399.964752,153.188950 399.964752,159.997269 
	C392.751038,159.997269 385.805267,160.094757 378.869049,159.881165 
	C377.940460,159.852554 376.272125,158.243805 376.280487,157.379700 
	C376.358307,149.334229 376.921570,141.291214 376.905182,133.248383 
	C376.899689,130.546616 379.419708,127.143478 375.110016,125.010696 
M433.001770,88.602127 
	C431.381561,84.288116 430.200806,79.739410 428.048706,75.709465 
	C423.701141,67.568321 415.715393,64.789246 407.306793,63.146702 
	C397.772339,61.284237 385.138123,66.673355 378.801544,74.264618 
	C372.136322,82.249603 372.482208,91.261757 373.284698,100.253105 
	C373.621826,104.030251 374.147827,109.409554 379.804047,110.987640 
	C380.322205,104.146622 380.815125,97.639114 381.308014,91.131599 
	C381.937164,90.475380 381.096619,89.852676 380.600647,89.023804 
	C379.146759,86.593910 380.386505,80.513969 382.481018,80.240326 
	C384.881775,79.926674 387.512878,79.733315 389.774261,80.401024 
	C392.787231,81.290634 394.080750,80.475830 395.073792,77.699478 
	C395.564484,76.327553 396.806458,74.365692 397.904724,74.227280 
	C401.507721,73.773163 405.342133,73.436790 408.801453,74.258995 
	C410.634125,74.694603 411.858368,77.634338 413.399689,79.406731 
	C413.654541,79.699844 414.110413,79.914955 414.502869,79.975822 
	C416.899506,80.347488 419.325378,81.042946 421.702240,80.912811 
	C425.514130,80.704117 426.672180,82.684761 425.916473,85.755898 
	C424.802246,90.284286 426.102905,94.677567 426.014801,99.130882 
	C425.925842,103.624573 425.995239,108.121407 425.995239,113.774117 
	C427.760925,111.378960 428.994049,110.224030 429.594604,108.801956 
	C432.199005,102.634918 435.645935,96.570572 433.001770,88.602127 
M410.415771,123.097260 
	C416.587769,121.877525 421.866302,119.363937 425.376740,112.994247 
	C411.864227,112.994247 399.062500,112.994316 386.260742,112.994072 
	C385.594177,112.994057 384.878540,112.834122 384.271393,113.023384 
	C383.062958,113.400070 381.914246,113.968147 380.718353,114.466522 
	C388.964874,123.707893 398.997528,125.014206 410.415771,123.097260 
z"/>
<path fill="#FDFDFD" opacity="1.000000" stroke="none" 
	d="
M121.021713,141.039810 
	C117.660515,129.167114 114.304222,117.717148 110.947922,106.267166 
	C110.547493,106.193794 110.147072,106.120422 109.746651,106.047043 
	C108.186996,110.933899 106.513954,115.788017 105.091484,120.714478 
	C102.204056,130.714539 99.609566,140.801331 96.598473,150.762924 
	C93.792358,160.046371 93.622734,160.063583 83.637039,159.962006 
	C79.043633,159.915283 73.510498,161.002914 70.165848,158.844833 
	C67.575409,157.173416 67.752274,151.249008 66.650223,147.228577 
	C62.373158,131.625351 58.044807,116.036095 53.798981,100.424385 
	C51.157574,90.712051 48.596828,80.977280 46.093830,71.228455 
	C45.783375,70.019279 46.051453,68.661568 46.051453,67.018906 
	C53.152569,67.018906 59.958511,66.894249 66.750778,67.143036 
	C67.867577,67.183945 69.628860,68.694519 69.900208,69.814651 
	C72.739067,81.533417 75.324234,93.313484 78.001648,105.071571 
	C79.560890,111.919128 81.160049,118.757599 83.029938,126.849457 
	C87.270195,111.127823 91.108742,96.778130 95.023285,82.449211 
	C96.287567,77.821381 97.470924,73.132095 99.294937,68.720497 
	C99.842728,67.395615 102.441841,66.157990 104.080612,66.183899 
	C109.591118,66.270988 115.092331,66.945618 120.689156,67.402969 
	C125.843529,86.459442 131.033310,105.646858 136.223099,124.834274 
	C136.599762,124.891998 136.976425,124.949722 137.353104,125.007446 
	C141.707626,105.825012 146.062149,86.642578 150.473572,67.209473 
	C157.930511,67.209473 165.718094,67.209473 174.187134,67.209473 
	C173.423798,70.798126 172.850098,74.211052 171.963928,77.540833 
	C167.465881,94.442459 162.866623,111.317123 158.344131,128.212280 
	C155.852737,137.519608 153.297012,146.814270 151.080566,156.188004 
	C150.374496,159.174118 149.155899,160.153320 146.147018,160.055695 
	C139.661118,159.845261 133.163635,159.991013 126.061264,159.991013 
	C124.390236,153.841339 122.708420,147.651932 121.021713,141.039810 
z"/>
<path fill="#FDFDFD" opacity="1.000000" stroke="none" 
	d="
M623.998047,144.995911 
	C623.997009,150.135773 623.997009,154.776367 623.997009,159.999390 
	C618.864624,159.999390 613.889771,160.377808 609.036499,159.776031 
	C607.518250,159.587799 606.327698,156.756683 604.924438,155.059464 
	C598.487183,160.313904 590.532532,162.950348 580.790894,161.162140 
	C567.237183,158.674164 559.826050,150.146820 557.211182,137.705887 
	C554.313660,123.920189 555.002625,110.390198 564.678101,98.516006 
	C569.533569,92.557243 575.722290,89.440926 582.701721,88.205818 
	C588.253479,87.223366 594.117859,88.007759 600.973694,88.007759 
	C601.157654,87.125717 601.904297,85.075043 601.957092,83.006653 
	C602.118530,76.683907 602.124878,70.351509 601.963379,64.028687 
	C601.885376,60.977062 603.015381,59.848019 606.042175,59.964558 
	C610.364624,60.130985 614.717285,60.253654 619.021729,59.928204 
	C623.091736,59.620483 624.093811,61.194088 624.072327,65.077461 
	C623.925598,91.549843 623.997620,118.023430 623.998047,144.995911 
M602.020813,110.976906 
	C599.454590,105.553024 594.320862,106.581604 590.231445,107.255127 
	C587.035095,107.781555 583.209839,109.918823 581.436646,112.539619 
	C577.615845,118.186768 578.110474,125.029671 579.263184,131.488266 
	C580.125488,136.319855 583.130493,139.752838 587.974792,141.539948 
	C595.149841,144.186874 602.008301,139.779694 602.017639,132.310944 
	C602.026184,125.505226 602.024109,118.699493 602.020813,110.976906 
z"/>
<path fill="#FDFDFD" opacity="1.000000" stroke="none" 
	d="
M183.315094,94.320511 
	C193.748352,87.483673 205.163986,85.575966 216.529037,88.242897 
	C231.619537,91.784035 241.183578,102.804817 242.326141,121.176666 
	C243.013840,132.234467 241.005219,142.341873 233.526688,151.078888 
	C228.914474,156.467255 223.078217,159.527771 216.472321,160.889816 
	C203.817902,163.498962 191.981552,161.467987 181.604980,153.191940 
	C175.206818,148.088943 172.551544,140.924591 171.075272,133.349182 
	C168.526794,120.271828 172.109299,108.488510 179.738510,97.813866 
	C180.619644,96.580994 181.935928,95.659126 183.315094,94.320511 
M200.694809,107.848343 
	C199.169235,109.420387 197.184082,110.749161 196.200211,112.607925 
	C192.563736,119.477974 192.605423,126.700455 194.964951,133.994034 
	C196.576752,138.976288 200.772736,141.936646 206.996155,142.451965 
	C211.405411,142.817047 216.481888,140.073975 217.817352,135.388748 
	C219.181381,130.603317 220.250015,125.379364 219.772675,120.511673 
	C219.154312,114.206078 216.857590,107.926598 209.185669,106.704918 
	C206.624222,106.297028 203.881653,107.026497 200.694809,107.848343 
z"/>
<path fill="#FEFEFE" opacity="1.000000" stroke="none" 
	d="
M493.019897,160.000000 
	C489.405243,160.000122 486.277924,160.000122 483.470276,160.000122 
	C483.470276,136.285660 483.470276,112.994957 483.470276,89.004639 
	C488.142639,89.004639 493.234375,88.853233 498.304688,89.116119 
	C499.501953,89.178192 501.392883,90.443718 501.651245,91.482361 
	C502.709381,95.736176 504.675507,94.270912 506.848480,92.675377 
	C514.568481,87.006966 523.360291,86.912178 532.073914,88.709923 
	C542.491638,90.859230 548.022156,99.055237 548.665710,108.506989 
	C549.819641,125.455826 548.991150,142.539627 548.991150,159.786194 
	C542.563904,159.786194 535.495056,159.786194 527.999146,159.786194 
	C527.999146,149.518768 528.103699,139.404068 527.954163,129.293121 
	C527.881531,124.383286 527.498108,119.462112 526.953674,114.579720 
	C526.419373,109.789124 520.776611,106.172684 516.156189,107.401909 
	C514.306702,107.893967 512.459106,108.406326 510.642609,109.006172 
	C507.531677,110.033432 505.917755,111.988167 505.951111,115.516243 
	C506.073944,128.492416 505.827637,141.474045 506.097687,154.445755 
	C506.188721,158.817810 504.957916,160.608093 500.497314,160.050095 
	C498.201141,159.762863 495.839386,159.999802 493.019897,160.000000 
z"/>
<path fill="#FDFEFD" opacity="1.000000" stroke="none" 
	d="
M276.905518,90.601479 
	C282.847137,89.198578 288.541626,88.084442 294.356873,86.946671 
	C294.356873,94.997421 294.356873,101.805984 294.356873,107.572350 
	C288.252899,109.089531 282.877625,110.023308 277.801178,111.807411 
	C273.278381,113.396950 271.998962,117.579559 271.988708,122.072975 
	C271.960266,134.539291 271.978821,147.005707 271.978821,159.736237 
	C264.671112,159.736237 257.601288,159.736237 249.887787,159.736237 
	C249.887787,136.353409 249.887787,112.967949 249.887787,89.001778 
	C255.128967,89.001778 260.083710,88.732681 264.975281,89.169937 
	C266.395721,89.296913 267.959656,91.246880 268.864746,92.724449 
	C269.729523,94.136192 269.822357,96.020760 269.914886,96.379753 
	C271.843597,94.809669 274.250946,92.849960 276.905518,90.601479 
z"/>
<path fill="#FDFEFD" opacity="1.000000" stroke="none" 
	d="
M449.706665,209.693878 
	C449.316589,212.471771 447.958038,213.691269 445.680725,212.912231 
	C444.297913,212.439194 442.538727,211.314972 442.123169,210.086060 
	C440.737823,205.989655 439.951599,201.695068 438.807495,197.511520 
	C437.320251,192.073303 432.815369,189.343613 426.800842,190.074982 
	C425.646820,190.215302 424.484283,190.285324 422.643829,190.448059 
	C423.163300,192.406677 423.677277,194.344635 424.191254,196.282608 
	C424.591278,196.147522 424.991302,196.012451 425.391327,195.877380 
	C425.232880,195.111099 425.074402,194.344818 424.915955,193.578537 
	C426.073120,193.697479 427.339935,193.560776 428.360535,193.998337 
	C429.717224,194.580017 430.882050,195.609268 432.869476,196.942917 
	C433.060303,201.461212 431.566681,202.247040 423.149689,200.408356 
	C423.149689,202.751465 423.149689,205.064438 423.149689,207.767426 
	C426.820618,207.767426 430.578552,207.767426 434.466705,207.767426 
	C435.566223,211.280136 434.947662,213.105637 431.147461,213.023285 
	C426.855103,212.930237 422.559174,213.001831 418.413483,213.001831 
	C417.702362,208.489792 417.060425,204.416641 416.418488,200.343491 
	C416.028961,200.351303 415.639435,200.359116 415.249908,200.366928 
	C414.833801,202.884995 414.608734,205.455429 413.937744,207.903610 
	C413.450470,209.681458 412.795502,212.161179 411.472198,212.808350 
	C408.605469,214.210297 406.968262,211.798523 406.075867,209.393265 
	C404.691956,205.663330 402.391205,203.093094 398.000153,201.822388 
	C398.000153,204.677597 398.347076,207.194809 397.863312,209.540741 
	C397.595184,210.841110 395.938446,211.855133 394.907593,212.998230 
	C393.937805,211.795807 392.167419,210.618896 392.128174,209.386856 
	C391.874390,201.418915 391.998199,193.438965 391.998199,185.502014 
	C397.494415,184.763412 400.703369,186.984161 403.050140,192.452591 
	C404.158478,195.035294 405.807495,197.385941 408.020508,199.477417 
	C408.020508,194.847122 408.020508,190.216827 408.020508,185.656357 
	C416.402618,182.235046 412.423737,191.059326 415.660156,193.049286 
	C416.126007,192.168564 417.034821,191.272583 416.912994,190.550522 
	C415.950623,184.846512 419.414185,184.750610 423.492737,184.961777 
	C427.314026,185.159607 431.229584,185.510727 434.965271,184.919724 
	C440.400177,184.059860 442.151123,186.906326 442.996765,191.350800 
	C443.416351,193.555939 443.920013,195.745087 444.684052,199.349197 
	C446.952759,193.935059 448.735077,189.681610 450.626160,185.168655 
	C451.930817,185.168655 453.571686,185.168655 455.626770,185.168655 
	C457.149597,190.848709 458.734070,196.758560 460.206451,202.250427 
	C461.381287,197.776260 462.932434,193.205719 463.712341,188.507141 
	C464.431519,184.174484 466.958038,184.847122 470.078613,185.317596 
	C468.015259,193.921356 466.227020,202.393814 463.772308,210.668564 
	C463.335236,212.141907 460.131744,212.794601 458.003540,213.934464 
	C456.290344,209.317627 454.930725,205.653580 453.571075,201.989532 
	C453.111908,201.884750 452.652740,201.779984 452.193542,201.675201 
	C451.447815,204.234467 450.702057,206.793747 449.706665,209.693878 
z"/>
<path fill="#FBFCFC" opacity="1.000000" stroke="none" 
	d="
M377.036102,204.200027 
	C378.549591,207.001160 380.017731,209.438950 381.773254,212.353928 
	C373.223175,215.006104 373.210236,204.865479 366.990417,204.134460 
	C366.990417,206.252975 367.308746,208.408981 366.859344,210.390884 
	C366.626312,211.418655 365.041168,212.802383 364.054626,212.812363 
	C363.046417,212.822556 361.599060,211.548325 361.096039,210.481689 
	C360.088409,208.345078 359.593781,205.966537 358.232788,203.754135 
	C356.591339,208.773148 354.540802,212.723297 348.942169,212.984406 
	C341.622681,213.325760 339.572388,211.995148 336.678833,205.214798 
	C336.264191,204.243195 336.072693,203.142105 335.961853,202.081711 
	C335.660217,199.196198 335.457245,196.300385 334.686859,193.458878 
	C333.363251,198.857101 335.899689,205.026031 330.994507,209.316513 
	C328.644043,211.372437 325.598114,212.932297 322.602264,213.874786 
	C318.950195,215.023666 311.699402,210.182343 309.651031,205.873001 
	C307.292847,200.911835 309.593964,190.268143 313.724487,187.031387 
	C318.633057,183.184952 325.885101,183.909210 331.468933,188.683029 
	C334.789398,187.196762 338.001892,185.758850 342.002258,183.968262 
	C342.002258,191.021393 342.100677,196.828781 341.967010,202.630798 
	C341.880432,206.390549 343.409332,208.110123 347.234131,208.033569 
	C350.908539,207.960007 352.083466,206.057724 352.023743,202.668594 
	C351.921661,196.869720 351.995605,191.067764 351.995605,185.321716 
	C360.712524,183.467285 356.976868,190.386307 358.873474,195.050583 
	C359.983215,191.023117 360.757050,188.214645 361.642975,184.999496 
	C364.943207,184.999496 368.725464,184.387115 372.172485,185.198700 
	C374.796539,185.816498 378.122894,187.764755 379.068085,189.996994 
	C380.029175,192.266846 379.364960,196.377716 377.755188,198.279755 
	C375.909393,200.460693 376.014038,201.806091 377.036102,204.200027 
M324.898102,207.569458 
	C328.928192,203.967834 328.234161,199.156616 327.847778,194.628174 
	C327.722687,193.161697 326.093842,190.913559 324.819763,190.653229 
	C322.496643,190.178635 318.703949,189.997894 317.692535,191.334839 
	C314.983490,194.915848 314.007538,199.295425 315.896179,204.028152 
	C317.555481,208.186249 320.734955,208.074585 324.898102,207.569458 
M369.110138,197.001846 
	C370.888397,195.418884 372.666687,193.835922 374.766144,191.967056 
	C371.710571,191.146042 369.523560,190.558395 366.256409,189.680511 
	C367.095062,192.730408 367.681122,194.861801 369.110138,197.001846 
z"/>
<path fill="#FBFCFC" opacity="1.000000" stroke="none" 
	d="
M256.039307,188.107391 
	C254.676147,188.739914 253.358276,189.512772 251.938828,189.970795 
	C249.996674,190.597473 247.977310,190.984818 244.553284,191.829376 
	C247.251175,192.691254 248.596481,193.121033 249.941772,193.550797 
	C249.996841,193.873901 250.051895,194.197006 250.106964,194.520111 
	C248.256943,194.790726 246.406921,195.061340 244.556900,195.331940 
	C244.556183,195.520355 244.555466,195.708755 244.554764,195.897156 
	C247.555359,195.897156 250.555954,195.897156 253.771225,195.897156 
	C253.771225,197.707108 253.771225,199.112747 253.771225,200.867584 
	C250.637909,200.867584 247.531219,200.867584 244.708511,200.867584 
	C244.708511,203.404663 244.708511,205.603592 244.708511,207.986572 
	C248.055542,207.986572 251.699234,207.986572 255.667908,207.986572 
	C255.667908,209.664810 255.667908,211.166077 255.667908,212.845703 
	C250.254578,212.845703 244.964081,212.845703 239.243835,212.845703 
	C239.243835,204.831406 239.243835,196.756546 239.243835,188.681702 
	C238.956711,188.648331 238.669601,188.614975 238.382477,188.581619 
	C238.382477,190.499619 238.382477,192.417633 238.382477,194.335632 
	C237.964294,194.123047 237.546112,193.910446 237.127930,193.697861 
	C235.757736,195.467484 233.995850,197.060791 233.102554,199.045105 
	C231.468277,202.675385 230.550125,206.629196 228.899536,210.250351 
	C228.341446,211.474731 226.417404,212.864609 225.216034,212.780060 
	C224.075317,212.699768 222.678940,210.970612 222.061996,209.653976 
	C219.523987,204.237625 217.240082,198.702225 214.339783,193.271194 
	C214.840698,202.049637 214.034149,210.161301 204.569321,213.543243 
	C199.675507,215.291901 192.770645,211.186768 191.006409,206.518417 
	C188.342453,199.469269 189.482239,189.709641 193.426910,187.088287 
	C198.568024,183.671844 205.318130,181.854050 213.498245,190.801743 
	C213.865250,190.109116 214.698105,189.135147 214.496582,188.817612 
	C213.435150,187.145111 212.820694,185.287720 215.367950,185.191513 
	C216.984238,185.130463 219.562683,186.446091 220.158203,187.817841 
	C222.233765,192.598892 223.633392,197.673355 225.757690,202.741821 
	C225.293640,199.769821 228.750305,198.305054 227.734222,194.532349 
	C227.124832,192.269623 229.655930,188.858902 231.358795,186.361938 
	C233.009750,183.941086 236.723572,184.462967 237.498169,186.282974 
	C243.719604,184.323807 249.804245,184.246811 256.002472,186.769257 
	C256.033356,187.705917 256.036346,187.906662 256.039307,188.107391 
M198.956268,190.027100 
	C195.092560,193.149887 194.360687,197.611710 195.246323,201.880524 
	C195.720215,204.164703 198.185593,206.856140 200.387711,207.694382 
	C202.063446,208.332230 205.765396,206.949875 206.712189,205.361435 
	C207.887665,203.389328 207.221146,200.278442 207.228973,197.659073 
	C207.250107,190.590057 206.672653,190.022659 198.956268,190.027100 
z"/>
<path fill="#FCFDFD" opacity="1.000000" stroke="none" 
	d="
M499.938599,200.059341 
	C500.625214,198.021515 501.755951,196.018097 501.916962,193.939545 
	C502.448425,187.079453 512.330505,181.782715 519.260986,185.071701 
	C522.269897,186.499603 525.335632,187.807632 528.690796,189.311432 
	C528.908386,187.599243 529.049683,186.487061 529.214844,185.187531 
	C530.973816,185.187531 532.754150,185.187531 535.003601,185.187531 
	C535.003601,190.675980 535.314209,196.157227 534.911499,201.585556 
	C534.548218,206.481995 535.874756,208.914307 541.149231,208.027878 
	C542.257202,207.841660 543.423279,208.000793 544.767090,208.000793 
	C544.767090,209.733414 544.767090,211.138199 544.767090,212.779388 
	C539.622314,212.779388 534.511353,212.779388 528.703064,212.779388 
	C528.703064,208.210632 528.703064,203.656769 528.703064,199.102905 
	C528.430542,199.043228 528.158020,198.983551 527.885498,198.923874 
	C527.256897,200.745667 526.521973,202.538605 526.018677,204.394363 
	C524.121216,211.390518 516.434998,215.292664 509.791107,212.137863 
	C506.006134,210.340591 500.327820,209.665359 501.868408,202.932495 
	C502.003082,202.343933 500.659393,201.417114 500.004639,200.317566 
	C500.006897,199.987717 499.938599,200.059341 499.938599,200.059341 
M507.004395,200.289413 
	C508.183380,204.216507 509.045410,208.348831 514.649902,208.029999 
	C519.614990,207.747513 520.289917,203.634460 520.621704,200.416443 
	C520.927307,197.453888 519.882263,193.930862 518.284119,191.371582 
	C517.489929,190.099655 513.859436,189.612076 511.969727,190.211746 
	C507.744141,191.552658 507.751984,195.857254 507.004395,200.289413 
z"/>
<path fill="#FAFAFA" opacity="1.000000" stroke="none" 
	d="
M161.995270,189.852478 
	C161.500046,189.904602 160.902176,189.796631 160.527557,190.036835 
	C158.988785,191.023499 157.517944,192.116104 156.022125,193.169739 
	C157.279938,194.227921 158.448959,195.421829 159.814575,196.315262 
	C162.437042,198.030899 165.170990,199.576126 166.590607,200.429642 
	C168.381821,196.599609 169.758469,191.714813 172.649353,188.012375 
	C175.630875,184.193863 180.333618,183.249939 185.396515,184.932159 
	C189.635590,186.340622 190.124084,187.272385 187.269073,190.924805 
	C181.681976,189.001846 177.271484,190.013458 175.092651,193.717575 
	C172.796814,197.620651 173.474930,204.259460 177.232056,206.457428 
	C179.356812,207.700424 182.609970,206.975235 185.346329,207.228683 
	C186.709473,207.354950 188.053421,207.688461 189.406036,207.928207 
	C188.599731,209.276443 188.079132,211.432220 186.938568,211.835754 
	C181.458206,213.774658 174.786987,214.634079 170.592468,208.248749 
	C169.958099,207.283020 168.485718,206.867798 167.385986,206.188690 
	C165.552826,211.902496 161.416138,214.256409 154.520065,212.875732 
	C151.928589,212.356888 147.696304,212.342545 149.378571,207.021759 
	C151.869598,207.343903 154.399094,207.944336 156.913483,207.886673 
	C158.272766,207.855499 160.625977,206.823502 160.722519,206.024521 
	C160.884476,204.684128 159.987000,202.523804 158.855118,201.848434 
	C155.421417,199.799591 151.661819,198.296936 147.903183,196.522064 
	C148.709488,193.651810 149.473114,190.933487 150.794647,188.323120 
	C152.791443,187.964310 154.236176,187.514618 155.668060,187.027267 
	C158.659622,186.009094 160.985535,186.448196 161.995270,189.852478 
z"/>
<path fill="#FDFDFD" opacity="1.000000" stroke="none" 
	d="
M472.010590,63.103622 
	C474.776794,67.605324 475.443024,72.093628 472.983154,76.347374 
	C469.746277,81.944656 464.145142,83.018143 458.358765,81.864319 
	C453.275208,80.850647 450.565887,76.592499 449.134430,72.065956 
	C447.198334,65.943642 454.298340,58.489044 461.721191,58.421703 
	C465.718323,58.385437 469.301819,59.503109 472.010590,63.103622 
z"/>
<path fill="#FDFDFD" opacity="1.000000" stroke="none" 
	d="
M256.479431,188.059738 
	C256.036346,187.906662 256.033356,187.705917 256.032715,187.204010 
	C260.313538,186.268631 264.576263,185.474960 268.875397,185.048798 
	C272.553619,184.684158 275.657196,186.532364 276.288391,190.000916 
	C276.817505,192.908447 276.526154,196.688477 274.996094,199.039688 
	C273.530029,201.292511 273.069611,202.185806 274.689026,204.431946 
	C276.328644,206.706085 277.162964,209.560822 278.389557,212.247833 
	C274.774780,213.038773 274.774780,213.038773 266.291656,206.282593 
	C262.728455,212.955429 262.728455,212.955429 258.997894,212.712570 
	C258.997894,205.615814 259.088776,198.487488 258.904877,191.366257 
	C258.875580,190.231873 257.612335,189.129333 256.479431,188.059738 
z"/>
<path fill="#FBFCFB" opacity="1.000000" stroke="none" 
	d="
M114.992615,197.082489 
	C114.892532,193.802795 114.393616,190.940231 114.846703,188.237228 
	C115.105179,186.695251 117.058418,184.127228 118.004158,184.231781 
	C122.722870,184.753448 127.623245,185.373886 131.958176,187.170029 
	C137.017166,189.266159 138.993088,196.033691 136.831757,203.778839 
	C135.674683,207.925217 133.066208,211.822708 127.726593,212.014236 
	C127.251961,212.031250 126.773544,212.141418 126.310799,212.261826 
	C116.298828,214.866837 114.993141,213.920380 114.994461,204.045914 
	C114.994751,201.886093 114.993263,199.726288 114.992615,197.082489 
M120.995499,197.580139 
	C120.995499,200.969727 120.995499,204.359299 120.995499,207.773056 
	C129.479095,206.974075 130.876831,205.915146 130.993195,200.598038 
	C131.176651,192.215820 131.176636,192.215820 120.995056,190.689743 
	C120.995056,192.685135 120.995056,194.664825 120.995499,197.580139 
z"/>
<path fill="#FCFCFC" opacity="1.000000" stroke="none" 
	d="
M500.042664,199.953568 
	C497.868927,199.947220 495.918854,199.955200 497.579559,203.186646 
	C499.045349,206.038879 500.074951,209.115280 501.445374,212.453766 
	C498.155121,213.387589 496.113403,213.421921 494.386047,210.107254 
	C493.251343,207.929825 490.647339,206.518082 487.696747,203.857697 
	C487.296143,207.536560 487.040100,209.887650 486.776337,212.309967 
	C481.399017,213.693329 481.518616,213.398865 481.849182,207.581619 
	C482.154114,202.214966 481.409027,196.777130 480.970947,191.383255 
	C480.591431,186.710052 482.030090,184.115494 487.258911,184.963058 
	C488.716492,185.199295 490.245605,184.968964 491.740753,185.003433 
	C496.914581,185.122757 499.856567,188.025742 499.988556,193.166702 
	C500.039734,195.159988 499.998871,197.155655 499.969238,199.604797 
	C499.938599,200.059341 500.006897,199.987717 500.042664,199.953568 
M493.435150,190.971695 
	C491.371643,190.583603 489.308167,190.195511 487.238403,189.806244 
	C487.238403,192.724854 487.238403,194.795486 487.238403,198.242386 
	C489.672394,196.379501 491.294464,195.138046 492.806213,193.981018 
	C492.878265,194.150314 493.201874,194.910660 493.946289,196.659668 
	C493.946289,194.249802 493.946289,192.943802 493.435150,190.971695 
z"/>
<path fill="#FAFBFB" opacity="1.000000" stroke="none" 
	d="
M562.060913,196.028656 
	C562.311584,197.551224 562.426941,200.222473 561.932800,200.340454 
	C559.171875,200.999512 556.263611,201.041122 553.169250,201.314651 
	C553.169250,202.713196 553.169250,204.961807 553.169250,206.757462 
	C556.982300,207.123856 560.823608,207.492981 564.636841,207.859406 
	C565.581055,211.680725 564.457520,213.193939 560.815613,213.049362 
	C556.370667,212.872879 551.913452,213.007370 547.232300,213.007370 
	C547.232300,203.633316 547.232300,194.582901 547.232300,185.056274 
	C553.057617,185.056274 558.786377,185.056274 564.858521,185.056274 
	C564.308044,187.312546 564.019653,188.494843 563.674500,189.909637 
	C560.483093,190.088257 557.229919,190.270309 553.585510,190.474274 
	C553.408325,191.855103 553.171326,193.702896 552.857605,196.148239 
	C554.801270,194.302536 556.249939,192.926849 557.367432,191.865646 
	C559.153931,193.591949 560.399109,194.795197 562.060913,196.028656 
z"/>
<path fill="#FCFCFC" opacity="1.000000" stroke="none" 
	d="
M305.020233,184.996307 
	C306.873901,184.784836 308.340546,184.611252 309.807190,184.437668 
	C310.021545,184.913101 310.235870,185.388535 310.450226,185.863968 
	C308.304413,189.536530 305.706909,193.029144 304.150421,196.936447 
	C302.816254,200.285751 302.113556,204.114731 302.146057,207.722443 
	C302.186432,212.214340 300.792999,213.904831 297.512482,213.026154 
	C295.820160,206.732315 294.468353,200.986359 292.673706,195.382217 
	C291.950531,193.123962 289.991272,191.280655 289.114685,189.044601 
	C288.655212,187.872574 289.320343,186.259689 289.477600,184.845886 
	C290.990753,185.519852 292.779602,185.886627 293.952637,186.939514 
	C295.727600,188.532639 297.073730,190.603546 298.849670,192.774002 
	C301.136658,189.713425 302.884949,187.373810 305.020233,184.996307 
z"/>
<path fill="#FCFDFD" opacity="1.000000" stroke="none" 
	d="
M143.073059,212.966690 
	C141.758240,211.635513 140.158630,210.338699 140.116684,208.993332 
	C139.873764,201.203125 139.998016,193.401474 139.998016,185.471268 
	C144.246368,184.191498 146.273514,185.144821 146.057236,189.921356 
	C145.786865,195.892700 146.177261,201.894760 145.880905,207.863647 
	C145.794525,209.603622 144.336868,211.275513 143.073059,212.966690 
z"/>
<path fill="#F3F5F4" opacity="1.000000" stroke="none" 
	d="
M162.329285,189.928558 
	C160.985535,186.448196 158.659622,186.009094 155.668060,187.027267 
	C154.236176,187.514618 152.791443,187.964310 151.155731,188.164963 
	C156.040710,182.189911 162.971390,182.354340 164.735626,188.717072 
	C164.261520,189.366165 164.105652,189.577652 164.014557,189.836884 
	C163.564148,189.892807 163.113724,189.948715 162.329285,189.928558 
z"/>
<path fill="#FAFAFA" opacity="1.000000" stroke="none" 
	d="
M164.279099,189.882614 
	C164.105652,189.577652 164.261520,189.366165 164.659546,189.111328 
	C164.739166,189.322937 164.641403,189.625641 164.279099,189.882614 
z"/>
<path fill="#000000" opacity="1.000000" stroke="none" 
	d="
M433.026306,89.031075 
	C435.645935,96.570572 432.199005,102.634918 429.594604,108.801956 
	C428.994049,110.224030 427.760925,111.378960 425.995239,113.774117 
	C425.995239,108.121407 425.925842,103.624573 426.014801,99.130882 
	C426.102905,94.677567 424.802246,90.284286 425.916473,85.755898 
	C426.672180,82.684761 425.514130,80.704117 421.702240,80.912811 
	C419.325378,81.042946 416.899506,80.347488 414.502869,79.975822 
	C414.110413,79.914955 413.654541,79.699844 413.399689,79.406731 
	C411.858368,77.634338 410.634125,74.694603 408.801453,74.258995 
	C405.342133,73.436790 401.507721,73.773163 397.904724,74.227280 
	C396.806458,74.365692 395.564484,76.327553 395.073792,77.699478 
	C394.080750,80.475830 392.787231,81.290634 389.774261,80.401024 
	C387.512878,79.733315 384.881775,79.926674 382.481018,80.240326 
	C380.386505,80.513969 379.146759,86.593910 380.600647,89.023804 
	C381.096619,89.852676 381.937164,90.475380 381.308014,91.131599 
	C380.815125,97.639114 380.322205,104.146622 379.804047,110.987640 
	C374.147827,109.409554 373.621826,104.030251 373.284698,100.253105 
	C372.482208,91.261757 372.136322,82.249603 378.801544,74.264618 
	C385.138123,66.673355 397.772339,61.284237 407.306793,63.146702 
	C415.715393,64.789246 423.701141,67.568321 428.048706,75.709465 
	C430.200806,79.739410 431.381561,84.288116 433.026306,89.031075 
z"/>
<path fill="#000000" opacity="1.000000" stroke="none" 
	d="
M410.107788,123.410614 
	C398.997528,125.014206 388.964874,123.707893 380.718353,114.466522 
	C381.914246,113.968147 383.062958,113.400070 384.271393,113.023384 
	C384.878540,112.834122 385.594177,112.994057 386.260742,112.994072 
	C399.062500,112.994316 411.864227,112.994247 425.376740,112.994247 
	C421.866302,119.363937 416.587769,121.877525 410.107788,123.410614 
z"/>
<path fill="#000000" opacity="1.000000" stroke="none" 
	d="
M602.023743,111.435333 
	C602.024109,118.699493 602.026184,125.505226 602.017639,132.310944 
	C602.008301,139.779694 595.149841,144.186874 587.974792,141.539948 
	C583.130493,139.752838 580.125488,136.319855 579.263184,131.488266 
	C578.110474,125.029671 577.615845,118.186768 581.436646,112.539619 
	C583.209839,109.918823 587.035095,107.781555 590.231445,107.255127 
	C594.320862,106.581604 599.454590,105.553024 602.023743,111.435333 
z"/>
<path fill="#000000" opacity="1.000000" stroke="none" 
	d="
M200.958344,107.542191 
	C203.881653,107.026497 206.624222,106.297028 209.185669,106.704918 
	C216.857590,107.926598 219.154312,114.206078 219.772675,120.511673 
	C220.250015,125.379364 219.181381,130.603317 217.817352,135.388748 
	C216.481888,140.073975 211.405411,142.817047 206.996155,142.451965 
	C200.772736,141.936646 196.576752,138.976288 194.964951,133.994034 
	C192.605423,126.700455 192.563736,119.477974 196.200211,112.607925 
	C197.184082,110.749161 199.169235,109.420387 200.958344,107.542191 
z"/>
<path fill="#000000" opacity="1.000000" stroke="none" 
	d="
M324.527100,207.768890 
	C320.734955,208.074585 317.555481,208.186249 315.896179,204.028152 
	C314.007538,199.295425 314.983490,194.915848 317.692535,191.334839 
	C318.703949,189.997894 322.496643,190.178635 324.819763,190.653229 
	C326.093842,190.913559 327.722687,193.161697 327.847778,194.628174 
	C328.234161,199.156616 328.928192,203.967834 324.527100,207.768890 
z"/>
<path fill="#000000" opacity="1.000000" stroke="none" 
	d="
M368.688660,196.997528 
	C367.681122,194.861801 367.095062,192.730408 366.256409,189.680511 
	C369.523560,190.558395 371.710571,191.146042 374.766144,191.967056 
	C372.666687,193.835922 370.888397,195.418884 368.688660,196.997528 
z"/>
<path fill="#000000" opacity="1.000000" stroke="none" 
	d="
M199.376434,190.016602 
	C206.672653,190.022659 207.250107,190.590057 207.228973,197.659073 
	C207.221146,200.278442 207.887665,203.389328 206.712189,205.361435 
	C205.765396,206.949875 202.063446,208.332230 200.387711,207.694382 
	C198.185593,206.856140 195.720215,204.164703 195.246323,201.880524 
	C194.360687,197.611710 195.092560,193.149887 199.376434,190.016602 
z"/>
<path fill="#000000" opacity="1.000000" stroke="none" 
	d="
M507.003662,199.874496 
	C507.751984,195.857254 507.744141,191.552658 511.969727,190.211746 
	C513.859436,189.612076 517.489929,190.099655 518.284119,191.371582 
	C519.882263,193.930862 520.927307,197.453888 520.621704,200.416443 
	C520.289917,203.634460 519.614990,207.747513 514.649902,208.029999 
	C509.045410,208.348831 508.183380,204.216507 507.003662,199.874496 
z"/>
<path fill="#000000" opacity="1.000000" stroke="none" 
	d="
M120.995277,197.112335 
	C120.995056,194.664825 120.995056,192.685135 120.995056,190.689743 
	C131.176636,192.215820 131.176651,192.215820 130.993195,200.598038 
	C130.876831,205.915146 129.479095,206.974075 120.995499,207.773056 
	C120.995499,204.359299 120.995499,200.969727 120.995277,197.112335 
z"/>
<path fill="#000000" opacity="1.000000" stroke="none" 
	d="
M493.690735,191.304749 
	C493.946289,192.943802 493.946289,194.249802 493.946289,196.659668 
	C493.201874,194.910660 492.878265,194.150314 492.806213,193.981018 
	C491.294464,195.138046 489.672394,196.379501 487.238403,198.242386 
	C487.238403,194.795486 487.238403,192.724854 487.238403,189.806244 
	C489.308167,190.195511 491.371643,190.583603 493.690735,191.304749 
z"/>
</svg>